
    <svg xmlns="http://www.w3.org/2000/svg" width="1200" height="630" viewBox="0 0 1200 630" fill="none">
      <defs>
        <linearGradient id="bg" x1="0" y1="0" x2="1200" y2="630" gradientUnits="userSpaceOnUse">
          <stop stop-color="#08111D" />
          <stop offset="0.58" stop-color="#06101A" />
          <stop offset="1" stop-color="#050D17" />
        </linearGradient>
        <linearGradient id="phoneBg" x1="16" y1="24" x2="204" y2="414" gradientUnits="userSpaceOnUse">
          <stop stop-color="#0B121D" />
          <stop offset="1" stop-color="#070C14" />
        </linearGradient>
        <linearGradient id="cardBg" x1="34" y1="198" x2="186" y2="290" gradientUnits="userSpaceOnUse">
          <stop stop-color="#08182C" />
          <stop offset="1" stop-color="#060F1B" />
        </linearGradient>
        <filter id="blur" x="-120" y="-120" width="1440" height="870" filterUnits="userSpaceOnUse">
          <feGaussianBlur stdDeviation="40" />
        </filter>
      </defs>

      <rect width="1200" height="630" fill="url(#bg)" />
      <circle cx="1090" cy="268" r="96" fill="rgba(214,178,92,0.18)" filter="url(#blur)" />
      <circle cx="742" cy="444" r="72" fill="rgba(67,101,168,0.16)" filter="url(#blur)" />
      <text x="80" y="52" fill="#F5F0E6" font-size="18" font-family="Arial, sans-serif" font-weight="700">imaan.app</text>
      
    <g transform="translate(80 44)">
      <rect width="250" height="68" rx="18" fill="rgba(10,18,31,0.72)" stroke="rgba(255,255,255,0.08)" />
      <path d="M36.1 33.8c0 4.4 3.8 5.9 3.8 5.9-.1.1-.7 2.1-2.1 4.1-1.2 1.7-2.3 3.3-4.1 3.4-1.7.1-2.2-1-4.2-1-2 0-2.6 1-4.1 1.1-1.6.1-3-1.7-4.2-3.4-2.4-3.4-4.2-9.5-1.8-13.6 1.2-2 3.2-3.2 5.5-3.3 1.6 0 3 1.1 4 1.1s2.7-1.4 4.6-1.2c.8 0 3 .3 4.5 2.3-.1 0-3.8 2.3-3.8 6.6zm-5-10.3c.9-1.1 1.5-2.6 1.3-4.1-1.5.1-3.3 1-4.4 2.1-1 1.2-1.9 2.8-1.6 4.3 1.7.1 3.6-.9 4.7-2.3z" fill="#F5F0E6"/>
      <text x="72" y="28" fill="#D9E0EA" font-size="14" font-family="Arial, sans-serif" font-weight="500">Coming soon to the</text>
      <text x="72" y="52" fill="#F5F0E6" font-size="28" font-family="Arial, sans-serif" font-weight="700">App Store</text>
    </g>
  
      <text x="80" y="160" fill="#F5F0E6" font-size="66" font-family="Georgia, serif" font-weight="700">A spiritual</text><text x="80" y="238" fill="#F5F0E6" font-size="66" font-family="Georgia, serif" font-weight="700">companion for</text><text x="80" y="316" fill="#F5F0E6" font-size="66" font-family="Georgia, serif" font-weight="700">the moments</text><text x="80" y="394" fill="#F5F0E6" font-size="66" font-family="Georgia, serif" font-weight="700">that pull at</text><text x="80" y="472" fill="#F5F0E6" font-size="66" font-family="Georgia, serif" font-weight="700">the heart.</text>
      <text x="80" y="540" fill="#BDC5D2" font-size="26" font-family="Arial, sans-serif" font-weight="400">Join the imaan.app waitlist for launch updates,</text><text x="80" y="574" fill="#BDC5D2" font-size="26" font-family="Arial, sans-serif" font-weight="400">App Store release news, and early access.</text>
      
    <g transform="translate(850 96)">
      <rect width="220" height="430" rx="34" fill="#0F1621" stroke="#02060D" stroke-width="8" />
      <rect x="72" y="10" width="76" height="10" rx="6" fill="#02060D" />
      <rect x="16" y="24" width="188" height="390" rx="26" fill="url(#phoneBg)" stroke="rgba(255,255,255,0.05)" />
      <text x="34" y="66" fill="#D9E0EA" font-size="16" font-family="Arial, sans-serif" font-weight="500">9:41</text>
      <rect x="165" y="43" width="24" height="24" rx="8" fill="rgba(8,24,44,0.92)" />
      <text x="34" y="108" fill="#D6B25C" font-size="14" font-family="Arial, sans-serif" font-weight="700" letter-spacing="2">imaan.app</text>
      <line x1="34" y1="132" x2="126" y2="132" stroke="rgba(245,240,230,1)" stroke-width="12" stroke-linecap="round" />
      <line x1="34" y1="154" x2="182" y2="154" stroke="rgba(245,240,230,1)" stroke-width="12" stroke-linecap="round" />
      <line x1="34" y1="176" x2="154" y2="176" stroke="rgba(245,240,230,1)" stroke-width="12" stroke-linecap="round" />
      <rect x="34" y="198" width="152" height="92" rx="16" fill="url(#cardBg)" stroke="rgba(255,255,255,0.06)" />
      <circle cx="110" cy="244" r="28" fill="none" stroke="#D6B25C" stroke-width="2.2" />
      <rect x="34" y="306" width="152" height="48" rx="14" fill="rgba(255,255,255,0.03)" stroke="rgba(255,255,255,0.06)" />
      <line x1="46" y1="324" x2="116" y2="324" stroke="rgba(245,240,230,0.9)" stroke-width="12" stroke-linecap="round" />
      <line x1="46" y1="344" x2="174" y2="344" stroke="rgba(245,240,230,0.9)" stroke-width="12" stroke-linecap="round" />
      <rect x="34" y="364" width="66" height="30" rx="14" fill="rgba(255,255,255,0.03)" stroke="rgba(255,255,255,0.06)" />
      <rect x="110" y="364" width="76" height="30" rx="14" fill="rgba(255,255,255,0.03)" stroke="rgba(255,255,255,0.06)" />
      <rect x="34" y="404" width="152" height="36" rx="14" fill="rgba(214,178,92,0.12)" stroke="rgba(255,255,255,0.08)" />
      <circle cx="48" cy="422" r="5" fill="#D6B25C" />
      <line x1="62" y1="422" x2="138" y2="422" stroke="rgba(245,240,230,0.9)" stroke-width="12" stroke-linecap="round" />
    </g>
  
    </svg>
  